<svg xmlns="http://www.w3.org/2000/svg" viewBox="0 0 32 32">
  <!-- Background (no radius - iOS will mask it) -->
  <rect x="0" y="0" width="32" height="32" fill="#111827"/>

  <!-- Row 0 -->
  <!-- Top-left orange: outer corner r=8 to align with iOS clipping -->
  <path d="M1.5,9.5 Q1.5,1.5 9.5,1.5 L9.5,1.5 Q10.5,1.5 10.5,2.5 L10.5,9.5 Q10.5,10.5 9.5,10.5 L2.5,10.5 Q1.5,10.5 1.5,9.5 Z" fill="#f97316"/>
  <path d="M12.5,1.5 h7 q1,0 1,1 v5 q0,3 -3,3 h-3 q-3,0 -3,-3 v-5 q0,-1 1,-1 z" fill="#ffffff"/>
  <!-- Top-right blue: outer corner r=8 -->
  <path d="M22.5,1.5 L22.5,1.5 Q30.5,1.5 30.5,9.5 L30.5,9.5 Q30.5,10.5 29.5,10.5 L22.5,10.5 Q21.5,10.5 21.5,9.5 L21.5,2.5 Q21.5,1.5 22.5,1.5 Z" fill="#2563eb"/>

  <!-- Row 1 -->
  <path d="M2.5,11.5 h5 q3,0 3,3 v3 q0,3 -3,3 h-5 q-1,0 -1,-1 v-7 q0,-1 1,-1 z" fill="#16a34a"/>
  <rect x="11.5" y="11.5" width="9" height="9" rx="3" fill="#facc15"/>
  <path d="M24.5,11.5 h5 q1,0 1,1 v7 q0,1 -1,1 h-5 q-3,0 -3,-3 v-3 q0,-3 3,-3 z" fill="#dc2626"/>

  <!-- Row 2 -->
  <!-- Bottom-left red: outer corner r=8 -->
  <path d="M2.5,21.5 L9.5,21.5 Q10.5,21.5 10.5,22.5 L10.5,29.5 Q10.5,30.5 9.5,30.5 L9.5,30.5 Q1.5,30.5 1.5,22.5 L1.5,22.5 Q1.5,21.5 2.5,21.5 Z" fill="#dc2626"/>
  <path d="M14.5,21.5 h3 q3,0 3,3 v5 q0,1 -1,1 h-7 q-1,0 -1,-1 v-5 q0,-3 3,-3 z" fill="#2563eb"/>
  <!-- Bottom-right green: outer corner r=8 -->
  <path d="M22.5,21.5 L29.5,21.5 Q30.5,21.5 30.5,22.5 L30.5,22.5 Q30.5,30.5 22.5,30.5 L22.5,30.5 Q21.5,30.5 21.5,29.5 L21.5,22.5 Q21.5,21.5 22.5,21.5 Z" fill="#16a34a"/>
</svg>
